<svg version="1" xmlns="http://www.w3.org/2000/svg" width="666.667" height="216" viewBox="0 0 500 162"><path d="M94 8c0 8 7 21 17 33l6 7-12 4c-14 4-14 4 1 5l7 1-5 5c-5 6-9 15-11 23v3l2-2c4-3 4-2 2 1-9 12-9 36-2 52l4 5v-7c0-9 2-19 7-30l4-7 1 4 4 8 2 2v-8c0-9 2-18 7-25 3-6 4-6 6-1l1 4 2-6 3-5 4 4c4 4 6 10 6 16 0 3 0 4-5 5l-11 8-6 7h8l10 2c5 3 11 10 13 15l3 5 4-5c4-6 6-15 4-23v-7l3 3 2 3v-6c0-6-3-15-7-22l-16-21c-2-1-1-2 9-4l9-2-9-2-10-3c-1 0 8-8 16-13l8-5-5-2c-8-3-17-8-24-13l-6-4v4l4 11 3 5-5 6-6 6-7-8-8-8 4-3 3-4-6-1c-6 0-13-2-22-8-6-4-6-4-6-2zM347 12c-5 5-11 8-21 9l-8 1 4 7 12 12 8 5-3 15-1 16 2-2 3-2v17l-5 13-4 7 5-2c5-3 9-4 9-2l-1 2c-1 1 0 2 3 3 10 4 15 11 23 29l3 9 1-5c3-17 8-30 14-38l13-11c1-1 1-2-1-3l-3-2V53l5-3 5-4-6-3-11-7c-5-3-13-13-16-19-2-2-2-2-2 7 0 10 1 11 4 18l4 8v36l-4 4-5 4-5-4-4-4V73l1-13 4-5 4-6h-5l-4-1 1-2-8-6-10-7c-1-1 0-3 2-7l2-12-1-6-4 4z"/><path d="M53 13c-4 6-13 15-19 18-7 4-14 4-20 1-4-2-4-2-4 0 0 4 5 12 10 17l6 5-2 4c-2 6-2 14-2 19l1 3 2-3 1-3 1 6c0 5 0 5-5 10l-7 9-6 16 5-3 4-2-3 7c-3 6-3 8-4 16 0 7 0 9 2 14l2 6 3-7c4-8 10-15 17-20 6-4 18-8 19-7l-2 4c-4 3-4 4 1 3 3 0 3 0 2 1-7 5-7 5-1 5 8-1 19-7 25-13 7-9 13-23 13-33v-5l-3 3c-4 4-9 6-17 9-5 2-6 1-4-2s1-3-3-1l-17 6c0-1 2-8 5-13l9-16 8-11-6-2-10-2-5-2v3l1 4c1 2-3 7-4 6V45h21l1 4 7 9 4 4 1-6c1-8 2-10 8-16l4-5-5-3c-6-3-12-7-16-12-4-4-6-4-7 1 0 4-2 3-6-5l-3-7-3 4zM440 18c-12 9-27 26-27 31h4l4-1-4 6-6 11c-3 5-6 16-6 17l5-1c6-1 16-2 22 0l4 1-4 5c-10 11-16 25-17 39 0 11 2 18 7 25l4 4-1-8c0-9 1-16 5-23 4-5 3-5 6 3l2 3 3-5c5-10 25-26 39-29 8-2 8-2 4-4l-3-3 3-1 3-1-4-3c-10-6-25-12-44-17l-4-2c0-2 4-8 7-12l2-2 6 2c7 3 20 3 31 0 14-3 14-3 5-7-10-4-19-9-25-16-6-5-12-14-12-16s-3-1-9 4zM213 18c-15 9-23 17-29 29-3 5-3 6 0 4 5-4 5-2 1 3l-7 10c-4 9-5 24-2 20 3-2 4-1 4 6 1 10 3 15 12 25 8 8 11 13 12 20 0 5 1 4 4-2 2-6 5-10 7-11s2-1 2 2c-1 2-1 2 3 2 5-1 15-5 17-8 3-2 8-9 8-10h-2l-4 1 2-4c5-5 8-11 11-18 2-6 6-22 5-23l-3 1c-2 1-2 1-2-1l2-5c0-4 0-4-2-4-4 0-14-6-19-10-6-7-9-15-10-24l-1-7-9 4zm5 44l9 6c4 3 5 3 4 7l-3 9c-3 5-2 6 3 3 3-2 4-1 2 3-5 9-17 8-23-3-2-5-3-10-1-16 1-5 5-13 6-13l3 4z"/><path d="M291 18l-7 5c-5 2-7 2-15 2-10 0-13 0-25-5-2-1-2-1-1 2 2 7 7 13 16 18l3 3v14 11c3-2 3-1 3 8v9l-6 6c-12 12-14 28-6 37l3 4-1-4c-2-7 3-13 11-14 4 0 4 0 3 1l-4 4-3 2 4 1c12 5 19 5 31 1l9-2-2 5-1 4c2 0 13-8 17-11l8-12c3-7 3-8 4-17l-1-13v-3l-2 3c-1 3-4 4-3 1 3-6 4-27 1-30l-2 2c-3 2-3 2-3 0l2-6 1-4-8-4c-5-2-9-5-16-12-8-7-8-8-10-6zm2 30c8 4 14 14 15 26 0 6 0 7-2 9s-2 2-1 4l3 1c2 0 2 0-1 3-3 4-8 5-14 4l-4-2-1-23 1-23 4 1z"/></svg>